<?xml version="1.0" standalone="no"?>
<!DOCTYPE svg PUBLIC "-//W3C//DTD SVG 20010904//EN"
 "http://www.w3.org/TR/2001/REC-SVG-20010904/DTD/svg10.dtd">
<svg version="1.0" xmlns="http://www.w3.org/2000/svg"
 width="700.000000pt" height="700.000000pt" viewBox="0 0 700.000000 700.000000"
 preserveAspectRatio="xMidYMid meet">
<metadata>
Created by potrace 1.11, written by Peter Selinger 2001-2013
</metadata>
<g transform="translate(0.000000,700.000000) scale(0.100000,-0.100000)"
fill="#000000" stroke="none">
<path d="M3300 6993 c-374 -29 -781 -150 -1095 -324 -614 -341 -1065 -884
-1284 -1547 -89 -268 -122 -481 -130 -832 l-6 -265 -71 -7 c-221 -22 -414
-174 -502 -396 -26 -66 -27 -71 -30 -352 -3 -192 0 -303 8 -340 16 -77 81
-205 136 -268 106 -121 295 -212 440 -212 32 0 33 -2 39 -47 71 -538 271
-1008 600 -1408 502 -610 1212 -961 2005 -991 955 -37 1867 448 2387 1270 208
328 342 707 398 1127 l6 46 68 6 c204 20 399 153 488 337 61 126 65 156 61
480 l-3 285 -29 70 c-38 92 -81 159 -142 219 -97 97 -228 161 -358 174 l-71 7
-7 260 c-3 143 -11 298 -17 345 -6 47 -11 86 -11 86 0 1 -71 5 -159 9 l-158 7
-6 72 c-7 96 -31 185 -77 282 -52 113 -105 187 -196 274 l-77 75 -2 160 c-1
146 -3 167 -28 240 -44 129 -100 220 -196 316 -135 134 -274 203 -463 230 -67
9 -107 9 -178 0 l-92 -12 -57 54 c-133 127 -275 194 -465 221 l-81 11 -3 158
c-1 86 -6 157 -10 157 -4 0 -74 7 -157 15 -136 13 -359 17 -475 8z m294 -380
c3 -21 8 -63 11 -93 9 -87 53 -300 79 -386 207 -689 691 -1247 1336 -1540 228
-104 546 -191 763 -210 l78 -7 -4 -946 c-3 -910 -4 -951 -25 -1071 -60 -354
-179 -663 -360 -935 -104 -156 -170 -237 -295 -363 -561 -568 -1330 -811
-2110 -667 -541 100 -1019 380 -1382 810 -273 325 -458 745 -526 1200 -20 131
-20 2059 0 2190 43 287 116 520 243 768 398 782 1196 1273 2090 1286 l96 1 6
-37z m-2804 -3378 c0 -353 -2 -435 -13 -435 -7 0 -37 7 -66 16 -67 20 -132 78
-161 145 -20 48 -21 63 -18 292 l3 242 28 47 c43 73 126 126 200 128 l27 0 0
-435z m5556 400 c24 -14 55 -41 70 -60 49 -64 53 -93 53 -340 1 -220 0 -232
-23 -280 -30 -66 -91 -120 -157 -139 -29 -9 -59 -16 -66 -16 -11 0 -13 82 -13
436 l0 437 47 -7 c25 -3 66 -17 89 -31z"/>
<path d="M1930 4014 c-109 -29 -189 -98 -239 -203 -23 -50 -26 -67 -25 -161 1
-116 18 -195 64 -296 102 -225 304 -393 542 -449 93 -22 277 -20 371 5 226 57
416 213 517 424 56 118 74 192 74 321 0 92 -3 118 -21 157 -45 98 -145 179
-252 204 -85 21 -954 19 -1031 -2z m952 -384 c-8 -113 -76 -234 -173 -305
-222 -164 -539 -83 -654 167 -27 59 -50 162 -40 178 4 7 158 9 438 8 l432 -3
-3 -45z"/>
<path d="M4030 4014 c-109 -29 -189 -98 -239 -203 -23 -50 -26 -67 -25 -161 1
-201 77 -380 224 -529 152 -155 337 -231 560 -231 221 0 406 76 559 229 187
188 282 513 203 693 -43 97 -143 179 -251 204 -85 21 -954 19 -1031 -2z m952
-384 c-10 -160 -139 -320 -299 -370 -171 -53 -373 8 -476 143 -55 72 -111 236
-92 267 4 7 158 9 438 8 l432 -3 -3 -45z"/>
<path d="M3388 3045 c-59 -22 -125 -72 -156 -118 -16 -23 -76 -132 -134 -242
-139 -262 -153 -330 -93 -461 79 -175 282 -259 449 -186 l46 21 46 -21 c167
-73 370 11 449 186 61 133 47 196 -103 481 -126 236 -161 283 -247 325 -61 30
-197 38 -257 15z"/>
<path d="M2910 1653 c-54 -22 -110 -94 -110 -142 0 -17 -9 -19 -119 -22 -116
-4 -120 -5 -158 -35 -21 -17 -46 -46 -55 -65 -37 -72 -12 -173 54 -221 29 -20
46 -23 154 -26 l122 -4 6 -41 c5 -31 18 -52 50 -83 75 -71 167 -72 241 0 34
32 46 52 51 84 l7 42 82 0 83 0 7 -32 c17 -80 97 -148 175 -148 78 0 158 68
175 148 l7 32 83 0 82 0 7 -42 c5 -32 17 -52 51 -84 74 -72 166 -71 241 0 32
31 45 52 50 83 l6 41 122 4 c108 3 125 6 154 26 66 48 91 149 54 221 -9 19
-34 48 -55 65 -38 30 -42 31 -158 35 -110 3 -119 5 -119 22 0 33 -38 96 -72
121 -47 33 -159 33 -206 0 -35 -25 -72 -88 -72 -122 0 -19 -6 -20 -83 -20
l-84 0 -12 40 c-24 82 -87 130 -171 130 -84 0 -147 -48 -171 -130 l-12 -40
-84 0 c-77 0 -83 1 -83 20 0 34 -37 97 -72 121 -23 17 -48 24 -93 26 -33 1
-67 0 -75 -4z"/>
</g>
</svg>
