<svg id="Layer_1" data-name="Layer 1" xmlns="http://www.w3.org/2000/svg" viewBox="0 0 512 512"><defs><style>.cls-1{fill:#2b374f;}</style></defs><title>zombie-glyph</title><path class="cls-1" d="M454.4,217.6V198.4a198.45,198.45,0,0,0-1.15-20.5l-1.17-11.45-11.51-.05c-4,0-7.89-.25-11.81-.57a64.24,64.24,0,0,0-26.82-51.41,57.47,57.47,0,0,0-69.76-68,57.48,57.48,0,0,0-43.55-20.79c0-.49-.13-1-.16-1.45-.31-3.63-.47-7.12-.47-10.37V2.27L276.5,1.09a193.29,193.29,0,0,0-47.22.75C131.4,15,57.6,99.47,57.6,198.4v19.2a44.85,44.85,0,0,0-44.8,44.8V288a44.85,44.85,0,0,0,44.8,44.8h.95C67.37,423.33,137.83,498,229.26,510.15A192.72,192.72,0,0,0,256,512c102.92,0,187.76-78.78,197.45-179.2h.95A44.85,44.85,0,0,0,499.2,288V262.4A44.85,44.85,0,0,0,454.4,217.6ZM316.06,67.82A31.08,31.08,0,0,1,320,83.2,30.41,30.41,0,0,1,315.13,100a152.81,152.81,0,0,1-22-48.34A32,32,0,0,1,316.06,67.82ZM230.78,336.13a7.2,7.2,0,0,1,.64-2l.51-1.09,14-26.2a11.44,11.44,0,0,1,20.18,0l14,26.2.51,1.09a7.2,7.2,0,0,1,.64,2,11.75,11.75,0,0,1,.38,3,12.8,12.8,0,0,1-25.6,0,12.8,12.8,0,0,1-25.6,0A11.75,11.75,0,0,1,230.78,336.13Zm-59.33-48.78a44.83,44.83,0,0,1-37.05-43.64,13.3,13.3,0,0,1,13.37-13.31h62.91c7.1,0,13.3,5.56,13.32,12.67v.13A44.83,44.83,0,0,1,171.46,287.35ZM320,428.8H307.2a12.8,12.8,0,1,1-25.6,0H268.8a12.8,12.8,0,1,1-25.6,0H230.4a12.8,12.8,0,1,1-25.6,0H192a12.8,12.8,0,1,1,0-25.6h12.8a12.8,12.8,0,1,1,25.6,0h12.8a12.8,12.8,0,1,1,25.6,0h12.8a12.8,12.8,0,1,1,25.6,0H320a12.8,12.8,0,1,1,0,25.6Zm57.6-185.6a44.8,44.8,0,0,1-89.6.51,13.3,13.3,0,0,1,13.37-13.31h62.91c7.1,0,13.3,5.56,13.32,12.67ZM331.9,120.47a56.88,56.88,0,0,0,12.22-49.91c.5,0,1-.15,1.48-.15a32,32,0,0,1,32,32c0,.45-.11.87-.13,1.32a64,64,0,0,0-12.67-1.32,12.8,12.8,0,0,0,0,25.6,38.29,38.29,0,0,1,38,33.38A153.09,153.09,0,0,1,331.9,120.47Z"/></svg>