<svg id="Layer_1" data-name="Layer 1" xmlns="http://www.w3.org/2000/svg" viewBox="0 0 512 512"><defs><style>.cls-1{fill:#2b374f;}</style></defs><title>zombie-outline</title><path class="cls-1" d="M454.4,217.6V198.4a198.55,198.55,0,0,0-1.15-20.5l-1.17-11.45-11.51-.05c-3.94,0-7.87-.21-11.78-.53A64.35,64.35,0,0,0,402,114.3a57.6,57.6,0,0,0-69.69-67.93,57.59,57.59,0,0,0-43.69-20.76c0-.47-.08-.94-.12-1.42-.31-3.63-.47-7.12-.47-10.37V2.27L276.5,1.09a193.31,193.31,0,0,0-47.22.75C131.4,15,57.6,99.47,57.6,198.4v19.2a44.85,44.85,0,0,0-44.8,44.8V288a44.85,44.85,0,0,0,44.8,44.8h.94C67.36,423.33,137.83,498,229.26,510.15A192.73,192.73,0,0,0,256,512c102.92,0,187.78-78.78,197.47-179.2h.93A44.85,44.85,0,0,0,499.2,288V262.4A44.85,44.85,0,0,0,454.4,217.6ZM377.6,102.4c0,.43,0,.87,0,1.3a64,64,0,0,0-12.77-1.3,12.8,12.8,0,1,0,0,25.6,38.32,38.32,0,0,1,38.06,33.43,153.1,153.1,0,0,1-71-41A57.34,57.34,0,0,0,345.6,83.2a58.1,58.1,0,0,0-1.42-12.76c.47,0,.94,0,1.42,0A32,32,0,0,1,377.6,102.4ZM316.06,67.82A31.08,31.08,0,0,1,320,83.2a31.6,31.6,0,0,1-1.32,9.14,31.91,31.91,0,0,1-3.55,7.8A152.92,152.92,0,0,1,293,51.6,32,32,0,0,1,316.06,67.82ZM38.4,288V262.4a19.22,19.22,0,0,1,19.2-19.2v64A19.22,19.22,0,0,1,38.4,288ZM256,486.4a167.38,167.38,0,0,1-23.27-1.62C147.48,473.41,83.2,399.82,83.2,313.6V198.4c0-86.17,64.26-159.76,149.56-171.2A167.56,167.56,0,0,1,256,25.6c2.25,0,4.55,0,6.91.15,0,.15,0,.31,0,.47q.55,7.52,1.72,14.87a12.89,12.89,0,0,0,.22,1.32A178.47,178.47,0,0,0,398,186.62a175.58,175.58,0,0,0,30.63,4.93c.11,2.37.17,4.64.17,6.85V313.6C428.8,408.88,351.28,486.4,256,486.4ZM473.6,288a19.22,19.22,0,0,1-19.2,19.2v-64a19.22,19.22,0,0,1,19.2,19.2Z"/><path class="cls-1" d="M236.8,243c0-14-11.76-25.42-26.12-25.42H147.77a26.1,26.1,0,0,0-18.68,7.8,25.66,25.66,0,0,0-7.48,18.45A57.62,57.62,0,0,0,169.34,300a59.2,59.2,0,0,0,9.76.81A57.58,57.58,0,0,0,236.8,243Zm-36.94,24.62A32,32,0,0,1,148,250.44a32.66,32.66,0,0,1-.83-6.88l.57-.37h62.91c.27,0,.5.15.52.07A32,32,0,0,1,199.86,267.64Z"/><path class="cls-1" d="M364.28,217.6H301.37a26.1,26.1,0,0,0-18.68,7.8,25.66,25.66,0,0,0-7.48,18.45A57.62,57.62,0,0,0,322.94,300a59.2,59.2,0,0,0,9.76.81A57.58,57.58,0,0,0,390.4,243C390.36,229,378.64,217.6,364.28,217.6Zm-10.82,50a32,32,0,0,1-51.83-17.2,32.66,32.66,0,0,1-.83-6.88l.57-.37h62.91c.27,0,.49.15.52.07A32,32,0,0,1,353.46,267.64Z"/><path class="cls-1" d="M220.36,327.6l-.37.8a19.78,19.78,0,0,0-1.7,4.92,24.47,24.47,0,0,0-.69,5.81A25.59,25.59,0,0,0,256,361.3a25.59,25.59,0,0,0,38.4-22.17,24.51,24.51,0,0,0-.69-5.81,18.82,18.82,0,0,0-1.56-4.63l-14.77-27.86a24.24,24.24,0,0,0-42.77,0ZM256,315.13l12.48,23.38.29.62H243.23Zm-12.8,24.12c0,.06,0,.12,0,.18h-.05Z"/><path class="cls-1" d="M320,403.2H307.2a12.8,12.8,0,0,0-25.6,0H268.8a12.8,12.8,0,0,0-25.6,0H230.4a12.8,12.8,0,0,0-25.6,0H192a12.8,12.8,0,0,0,0,25.6h12.8a12.8,12.8,0,0,0,25.6,0h12.8a12.8,12.8,0,0,0,25.6,0h12.8a12.8,12.8,0,0,0,25.6,0H320a12.8,12.8,0,0,0,0-25.6Z"/></svg>