<svg id="Layer_1" data-name="Layer 1" xmlns="http://www.w3.org/2000/svg" viewBox="0 0 512 512"><defs><style>.cls-1{fill:#f2496d;}.cls-2{fill:#9acc79;}.cls-3{fill:#fff;}.cls-4{fill:#77a05c;}.cls-5{opacity:0.2;}.cls-6{opacity:0.08;}.cls-7{fill:#8ebc70;}.cls-8{fill:#bc3760;}</style></defs><title>zombie-flat</title><path class="cls-1" d="M290.26,38.56a152.92,152.92,0,0,0,114,123.23c3.82,1,7.7,1.73,11.58,2.4a51.11,51.11,0,0,0-29.12-44,44.76,44.76,0,0,0-59.49-58.61"/><path class="cls-2" d="M453.25,177.9l-1.17-11.45-11.51-.05a150.47,150.47,0,0,1-36.32-4.61A153,153,0,0,1,288.47,24.19c-.31-3.63-.47-7.12-.47-10.37V2.27L276.5,1.09a193.29,193.29,0,0,0-47.22.75C131.4,15,57.6,99.47,57.6,198.4V313.6c0,99,73.83,183.5,171.66,196.55A192.72,192.72,0,0,0,256,512c109.4,0,198.4-89,198.4-198.4V198.4A198.45,198.45,0,0,0,453.25,177.9Z"/><path class="cls-3" d="M217.08,224H154.17A19.74,19.74,0,0,0,140,229.9a19.31,19.31,0,0,0-5.64,13.88,51.23,51.23,0,0,0,42.4,49.88,52.84,52.84,0,0,0,8.69.72A51.18,51.18,0,0,0,236.8,243C236.77,232.54,227.92,224,217.08,224Z"/><path class="cls-3" d="M357.88,224H295a19.74,19.74,0,0,0-14.13,5.9,19.3,19.3,0,0,0-5.64,13.88,51.25,51.25,0,0,0,42.4,49.88,52.81,52.81,0,0,0,8.69.72A51.17,51.17,0,0,0,377.6,243C377.57,232.54,368.72,224,357.88,224Z"/><path class="cls-4" d="M243.2,351.94a12.84,12.84,0,0,0,12.8-12.8,12.8,12.8,0,0,0,25.6,0,11.75,11.75,0,0,0-.38-3,7.2,7.2,0,0,0-.64-2l-.51-1.09-14-26.2a11.44,11.44,0,0,0-20.18,0l-14,26.2-.51,1.09a7.2,7.2,0,0,0-.64,2,11.75,11.75,0,0,0-.38,3A12.84,12.84,0,0,0,243.2,351.94Z"/><path class="cls-4" d="M320,403.2H307.2a12.8,12.8,0,1,0-25.6,0H268.8a12.8,12.8,0,1,0-25.6,0H230.4a12.8,12.8,0,1,0-25.6,0H192a12.8,12.8,0,1,0,0,25.6h12.8a12.8,12.8,0,1,0,25.6,0h12.8a12.8,12.8,0,1,0,25.6,0h12.8a12.8,12.8,0,1,0,25.6,0H320a12.8,12.8,0,1,0,0-25.6Z"/><g class="cls-5"><path class="cls-3" d="M121.6,317.92V194.08c0-84.14,46.21-158.53,114-192.93-2.1.22-4.22.4-6.3.69C131.4,15,57.6,99.47,57.6,198.4V313.6c0,99,73.83,183.5,171.66,196.55,2,.28,4.09.42,6.13.64C167.75,476.38,121.6,402,121.6,317.92Z"/></g><g class="cls-6"><path d="M454.34,197.18v115.2c0,99-73.79,183.55-171.65,196.54-2,.32-4.1.45-6.14.64,67.65-34.37,113.79-108.74,113.79-192.83V192.9a227.34,227.34,0,0,0-2.94-36.42,147.09,147.09,0,0,0,16.83,5.31,151.31,151.31,0,0,0,36.35,4.61l11.26.06a27.77,27.77,0,0,1,.58,3.33,2.63,2.63,0,0,1,.06.7,169.69,169.69,0,0,1,1.66,18.18c0,.26.06.51.06.83C454.27,192.06,454.34,194.62,454.34,197.18Z"/></g><path class="cls-7" d="M454.4,217.6v96c0,6.48-.34,12.88-.95,19.2h.95A44.85,44.85,0,0,0,499.2,288V262.4A44.85,44.85,0,0,0,454.4,217.6Z"/><path class="cls-7" d="M57.6,313.6v-96a44.85,44.85,0,0,0-44.8,44.8V288a44.85,44.85,0,0,0,44.8,44.8h.95C57.93,326.47,57.6,320.07,57.6,313.6Z"/><path class="cls-8" d="M293.08,51.65a32,32,0,0,1,23,16.17A31.08,31.08,0,0,1,320,83.2,30.42,30.42,0,0,1,315.13,100a152.84,152.84,0,0,0,16.78,20.48,56.88,56.88,0,0,0,12.22-49.91c.5,0,1-.15,1.48-.15a32,32,0,0,1,32,32c0,.45-.11.87-.13,1.32a64,64,0,0,0-12.67-1.32,12.8,12.8,0,0,0,0,25.6,38.29,38.29,0,0,1,38,33.38c.48.12.94.29,1.42.41a150,150,0,0,0,24.51,4,64.25,64.25,0,0,0-26.83-51.41,57.47,57.47,0,0,0-69.76-68,57.49,57.49,0,0,0-43.55-20.79A154.39,154.39,0,0,0,293.08,51.65Z"/></svg>